PathFileType	3	(X/Y/Z)	D:\minhoCalibration\240510\subject2_KPNP\preferred\preferred11.trc
DataRate	CameraRate	NumFrames	NumMarkers	Units	OrigDataRate	OrigDataStartFrame	OrigNumFrames
200.0	200.0	12	10	mm	200.0	232	182	
Frame#	Time	Left_Ankle_Outer1			Left_Ankle_Inner1			Left_Knee_Outer1			Left_Knee_Inner1			Left_Wrist1			Right_Wrist1			Right_Knee_Inner1			Right_Knee_Outer1			Right_Ankle_Inner1			Right_Ankle_Outer1			
		X1	Y1	Z1	X2	Y2	Z2	X3	Y3	Z3	X4	Y4	Z4	X5	Y5	Z5	X6	Y6	Z6	X7	Y7	Z7	X8	Y8	Z8	X9	Y9	Z9	X10	Y10	Z10	
232	1.15	-593.75549	87.435333	-710.83942	-626.28503	90.023964	-659.9032	-428.16373	512.51331	-611.56201	-518.19855	490.595	-569.6131	-529.06055	916.66895	-766.71063	-862.21326	954.23431	-833.90625	-953.32062	450.33267	-850.96021	-1011.4606	506.70944	-904.09979	-895.00739	142.29639	-1113.5042	-966.46185	178.90022	-1172.2406
233	1.155	-594.46381	87.161339	-710.11188	-626.45178	89.891602	-659.466	-426.35281	510.88013	-611.72028	-516.34631	489.82211	-567.35535	-524.47675	919.63562	-763.42267	-858.12158	956.48822	-826.38031	-957.94177	453.60095	-839.31146	-1015.0293	511.30695	-890.77997	-898.75183	151.01216	-1105.3765	-968.97266	188.50691	-1163.8689
234	1.16	-594.54889	87.16674	-709.94757	-626.51807	89.959618	-658.76196	-424.76129	509.04346	-611.90387	-514.56116	488.60303	-564.77917	-519.13995	922.83722	-760.7406	-853.84637	959.09808	-819.05048	-957.73181	453.69147	-832.52991	-1019.6602	516.38019	-874.06531	-900.42438	159.59477	-1097.4279	-971.79486	198.68788	-1154.7708
235	1.165	-594.336	87.142593	-710.03339	-626.3313	89.806213	-659.08746	-423.26132	507.09528	-612.00098	-513.06842	486.73123	-566.16907	-515.09515	925.86749	-758.25543	-849.4989	961.89795	-811.73792	-961.47449	458.99582	-814.86963	-1021.6122	521.65692	-861.05243	-903.61829	168.68187	-1088.7776	-974.72357	209.43976	-1145.0262
236	1.17	-593.94434	87.109482	-710.26709	-626.0946	89.816048	-659.46039	-421.63922	505.56003	-612.02466	-511.33395	485.48538	-566.02112	-509.15497	929.35449	-755.237	-845.1795	964.99011	-804.47003	-964.20819	464.3587	-798.41095	-1025.0101	527.08557	-843.39941	-906.87683	178.38365	-1079.369	-977.57666	220.8989	-1134.6512
237	1.175	-593.51428	87.084686	-710.5473	-626.65137	86.541405	-668.13623	-420.10129	504.32544	-611.85107	-509.60272	484.67056	-566.09912	-504.40002	932.66608	-753.67725	-840.75189	968.21771	-797.17279	-971.91235	474.38251	-772.48669	-1026.8282	533.27594	-826.10828	-910.51569	188.99013	-1069.265	-980.7207	233.17415	-1123.6874
238	1.18	-593.13556	87.060471	-710.83374	-626.65253	86.791992	-667.01685	-418.59485	503.53229	-611.69275	-507.91867	484.21228	-566.67224	-499.48596	936.09113	-752.10352	-836.32654	971.73987	-788.53387	-973.8139	480.3681	-754.61475	-1028.5674	539.36218	-808.03156	-913.10242	199.71469	-1058.9952	-983.75275	245.74405	-1111.9706
239	1.185	-592.84674	87.020447	-711.07086	-626.51526	86.866638	-667.43909	-416.98706	502.98929	-611.88702	-506.0069	484.67368	-565.26477	-493.96014	939.87415	-751.08191	-831.76337	975.17572	-782.02008	-969.74689	482.3085	-744.53442	-1028.9806	545.99561	-790.61316	-915.19318	211.73177	-1048.1085	-986.62903	258.72375	-1099.6638
240	1.19	-592.69769	87.043495	-711.26605	-626.06543	86.914146	-668.75787	-415.48929	502.50525	-612.43652	-504.47153	484.29364	-568.78534	-488.65863	943.55963	-750.06482	-827.22302	978.91681	-774.08057	-970.03809	488.73651	-725.20056	-1029.2887	552.87085	-771.65356	-917.13733	224.79694	-1037.4104	-989.14929	272.40363	-1087.0081
241	1.195	-592.4986	87.089378	-711.50311	-625.3855	87.785248	-667.87628	-413.89597	502.07932	-613.84778	-502.56473	484.69272	-570.42719	-483.41052	947.06683	-749.83777	-822.59894	982.77209	-765.79138	-974.11255	499.40805	-698.40472	-1029.1017	559.87592	-752.21155	-917.77435	238.90488	-1025.3644	-991.49567	286.67609	-1073.999
242	1.2	-592.26703	87.049095	-711.8139	-625.72717	87.491264	-668.88202	-412.33215	501.67447	-615.9801	-500.45209	485.16275	-572.28351	-477.90668	950.71655	-749.67706	-817.89697	986.84796	-757.07294	-968.03339	502.25156	-687.56702	-1028.7015	567.01105	-731.98572	-918.42029	254.2926	-1014.1136	-992.95337	302.04303	-1060.5887
243	1.205	-591.96051	87.066658	-712.19489	-624.07715	91.067421	-661.60779	-411.03537	501.36078	-619.13849	-498.20483	485.71274	-574.474	-472.37231	954.26257	-749.96606	-813.00397	991.10406	-748.0329	-970.78143	513.45361	-660.64008	-1027.282	574.67517	-712.01959	-918.29462	269.83691	-1002.0792	-993.37378	318.05923	-1046.7852
